/* XPM */
static char * burn_xpm[] = {
"14 32 420 2",
"  	c None",
". 	c #006C12",
"+ 	c #036D13",
"@ 	c #0E7017",
"# 	c #24771F",
"$ 	c #418029",
"% 	c #5C8833",
"& 	c #728F3B",
"* 	c #819340",
"= 	c #869542",
"- 	c #8A9543",
"; 	c #8E9745",
"> 	c #919846",
", 	c #959947",
"' 	c #989A48",
") 	c #19741B",
"! 	c #327B24",
"~ 	c #4D832D",
"{ 	c #678B37",
"] 	c #79913E",
"^ 	c #839441",
"/ 	c #889543",
"( 	c #8C9644",
"_ 	c #8F9845",
": 	c #939846",
"< 	c #979A48",
"[ 	c #9A9B49",
"} 	c #9F9C4B",
"| 	c #A29D4C",
"1 	c #5B8733",
"2 	c #718E3A",
"3 	c #7F923F",
"4 	c #869442",
"5 	c #8A9643",
"6 	c #959A48",
"7 	c #989A49",
"8 	c #9C9B4A",
"9 	c #A19D4B",
"0 	c #A49E4C",
"a 	c #A89F4E",
"b 	c #ABA04F",
"c 	c #849441",
"d 	c #8B9644",
"e 	c #909745",
"f 	c #939947",
"g 	c #9B9B49",
"h 	c #9E9C4B",
"i 	c #A69E4D",
"j 	c #AA9F4F",
"k 	c #ADA150",
"l 	c #B1A251",
"m 	c #B5A353",
"n 	c #929846",
"o 	c #999A49",
"p 	c #9D9B4A",
"q 	c #A19D4C",
"r 	c #A49E4D",
"s 	c #ACA04F",
"t 	c #AFA151",
"u 	c #B3A252",
"v 	c #B7A353",
"w 	c #BAA555",
"x 	c #BEA656",
"y 	c #AA9F4E",
"z 	c #ADA050",
"A 	c #B8A454",
"B 	c #BCA555",
"C 	c #C0A657",
"D 	c #C4A758",
"E 	c #C7A859",
"F 	c #9B9849",
"G 	c #757136",
"H 	c #9D9449",
"I 	c #A4994C",
"J 	c #7C7339",
"K 	c #AC9C4F",
"L 	c #B5A253",
"M 	c #8F7E41",
"N 	c #84743C",
"O 	c #AD954E",
"P 	c #AF954E",
"Q 	c #B29650",
"R 	c #CDAA5B",
"S 	c #A18448",
"T 	c #9B9148",
"U 	c #221F10",
"V 	c #746A35",
"W 	c #766A36",
"X 	c #2C2614",
"Y 	c #A6914B",
"Z 	c #5A4E29",
"` 	c #66562D",
" .	c #806B39",
"..	c #88713D",
"+.	c #8B723E",
"@.	c #8C723E",
"#.	c #D7AD5F",
"$.	c #493A20",
"%.	c #A3944B",
"&.	c #433B1F",
"*.	c #594E29",
"=.	c #554A27",
"-.	c #504524",
";.	c #A28948",
">.	c #4F4223",
",.	c #D2AB5D",
"'.	c #D5AD5E",
").	c #917540",
"!.	c #927440",
"~.	c #E0B062",
"{.	c #4B3B21",
"].	c #AC964E",
"^.	c #514625",
"/.	c #6E5E31",
"(.	c #715F33",
"_.	c #5B4B29",
":.	c #AD8E4D",
"<.	c #4C3E21",
"[.	c #CFA75B",
"}.	c #D9AD5F",
"|.	c #D9AB5F",
"1.	c #9F7C45",
"2.	c #8A6B3C",
"3.	c #E3AE63",
"4.	c #4C3A21",
"5.	c #B59A51",
"6.	c #5A4B28",
"7.	c #C9A659",
"8.	c #CCA65A",
"9.	c #63502C",
"0.	c #C29B56",
"a.	c #987842",
"b.	c #4C3C21",
"c.	c #554225",
"d.	c #8B6A3C",
"e.	c #D7A45E",
"f.	c #564125",
"g.	c #543F24",
"h.	c #7C5C36",
"i.	c #CFAA5C",
"j.	c #CFA85C",
"k.	c #DBAE60",
"l.	c #DAAC60",
"m.	c #E2B063",
"n.	c #E6B164",
"o.	c #E4AE63",
"p.	c #E6AE64",
"q.	c #EFB367",
"r.	c #F5B66A",
"s.	c #F4B469",
"t.	c #F0B06A",
"u.	c #EFB06F",
"v.	c #D9AE60",
"w.	c #DDAF61",
"x.	c #E1B062",
"y.	c #E4B163",
"z.	c #E8B265",
"A.	c #ECB366",
"B.	c #F0B468",
"C.	c #F4B569",
"D.	c #F7B76A",
"E.	c #F9B76C",
"F.	c #F5B46F",
"G.	c #E8AD73",
"H.	c #D4A278",
"I.	c #BE967D",
"J.	c #E2B163",
"K.	c #E6B264",
"L.	c #EAB365",
"M.	c #EEB467",
"N.	c #F1B568",
"O.	c #F5B669",
"P.	c #F9B76B",
"Q.	c #FAB76D",
"R.	c #F1B170",
"S.	c #E0A875",
"T.	c #C99C7B",
"U.	c #B29081",
"V.	c #9D8486",
"W.	c #8B7B8A",
"X.	c #ECB467",
"Y.	c #F0B568",
"Z.	c #F4B669",
"`.	c #F7B76B",
" +	c #E8AD72",
".+	c #D1A179",
"++	c #BB947E",
"@+	c #A58984",
"#+	c #917E89",
"$+	c #81758D",
"%+	c #746F90",
"&+	c #676793",
"*+	c #F6B669",
"=+	c #F8B66D",
"-+	c #EFB071",
";+	c #DCA676",
">+	c #C69B7C",
",+	c #B08E81",
"'+	c #9A8287",
")+	c #89798B",
"!+	c #7A728F",
"~+	c #6E6B92",
"{+	c #606495",
"]+	c #545D98",
"^+	c #48569B",
"/+	c #F4B46F",
"(+	c #E7AC73",
"_+	c #D3A178",
":+	c #BB957E",
"<+	c #927E89",
"[+	c #82768D",
"}+	c #746E91",
"|+	c #5B6197",
"1+	c #4E5A9A",
"2+	c #41539D",
"3+	c #354CA0",
"4+	c #2B47A3",
"5+	c #C69A7C",
"6+	c #AF8E82",
"7+	c #9B8387",
"8+	c #616495",
"9+	c #47569C",
"0+	c #3B509F",
"a+	c #2F49A2",
"b+	c #2645A4",
"c+	c #2747A4",
"d+	c #2C4DA3",
"e+	c #8E7C8A",
"f+	c #7F748D",
"g+	c #726D91",
"h+	c #666794",
"i+	c #595F97",
"j+	c #4C599A",
"k+	c #40529D",
"l+	c #334BA0",
"m+	c #2946A3",
"n+	c #2545A4",
"o+	c #2A4AA3",
"p+	c #3352A1",
"q+	c #3B599F",
"r+	c #44619D",
"s+	c #6C6A92",
"t+	c #606395",
"u+	c #535D98",
"v+	c #46569C",
"w+	c #394E9F",
"x+	c #2E49A2",
"y+	c #2746A4",
"z+	c #2748A4",
"A+	c #2E4EA2",
"B+	c #3655A0",
"C+	c #405D9E",
"D+	c #49659C",
"E+	c #506B9A",
"F+	c #577199",
"G+	c #3F5199",
"H+	c #33499A",
"I+	c #2945A1",
"J+	c #2646A4",
"K+	c #2948A0",
"L+	c #3151A1",
"M+	c #425F9A",
"N+	c #4D689B",
"O+	c #516A94",
"P+	c #577093",
"Q+	c #5E7796",
"R+	c #637C96",
"S+	c #2C48A2",
"T+	c #101C40",
"U+	c #0F1A35",
"V+	c #101C3B",
"W+	c #36549C",
"X+	c #1B2847",
"Y+	c #445D8F",
"Z+	c #4A638D",
"`+	c #273344",
" @	c #587090",
".@	c #14191E",
"+@	c #222A31",
"@@	c #41505B",
"#@	c #6F8693",
"$@	c #2B4BA3",
"%@	c #132042",
"&@	c #21325D",
"*@	c #192339",
"=@	c #4C6695",
"-@	c #232E41",
";@	c #536A8A",
">@	c #576D8A",
",@	c #2A353F",
"'@	c #63798D",
")@	c #262E34",
"!@	c #53646D",
"~@	c #394446",
"{@	c #7A8F91",
"]@	c #415E9E",
"^@	c #1D293F",
"/@	c #33425B",
"(@	c #293547",
"_@	c #4D627E",
":@	c #293441",
"<@	c #5C7186",
"[@	c #5F7485",
"}@	c #303A3F",
"|@	c #6D828A",
"1@	c #181D1D",
"2@	c #282F2E",
"3@	c #586560",
"4@	c #86998E",
"5@	c #55709A",
"6@	c #242F3E",
"7@	c #38465A",
"8@	c #242D38",
"9@	c #506170",
"0@	c #3E4B55",
"a@	c #364147",
"b@	c #374247",
"c@	c #475353",
"d@	c #788B88",
"e@	c #333B37",
"f@	c #77887B",
"g@	c #3B423B",
"h@	c #8D9D84",
"i@	c #627B96",
"j@	c #506374",
"k@	c #495863",
"l@	c #5A6C75",
"m@	c #748A91",
"n@	c #768B8E",
"o@	c #5F6F6C",
"p@	c #63726C",
"q@	c #84978B",
"r@	c #899B8A",
"s@	c #75836E",
"t@	c #99A98A",
"u@	c #85916F",
"v@	c #9BA87B",
"w@	c #6E8493",
"x@	c #728893",
"y@	c #768C92",
"z@	c #7B9090",
"A@	c #7F9490",
"B@	c #84988F",
"C@	c #899C8D",
"D@	c #8EA08C",
"E@	c #95A68A",
"F@	c #9CAD89",
"G@	c #A5B387",
"H@	c #ACBA85",
"I@	c #B4C183",
"J@	c #BCC882",
"K@	c #798E91",
"L@	c #7D9190",
"M@	c #81958F",
"N@	c #8B9E8D",
"O@	c #91A38B",
"P@	c #98A989",
"Q@	c #A0B088",
"R@	c #A9B686",
"S@	c #B0BD84",
"T@	c #B8C482",
"U@	c #C0CB81",
"V@	c #C9D37F",
"W@	c #D2DB7D",
"X@	c #85988E",
"Y@	c #4D5852",
"Z@	c #707D6E",
"`@	c #90A086",
" #	c #5C6651",
".#	c #9AA97F",
"+#	c #454B37",
"@#	c #454A34",
"##	c #70764D",
"$#	c #969F63",
"%#	c #4B4F30",
"&#	c #686C3D",
"*#	c #CFD56F",
"=#	c #EBF077",
"-#	c #92A48C",
";#	c #393F34",
">#	c #3B4132",
",#	c #99A579",
"'#	c #454A33",
")#	c #A8B377",
"!#	c #474B2F",
"~#	c #A8B06A",
"{#	c #BCC36F",
"]#	c #919651",
"^#	c #94974B",
"/#	c #828541",
"(#	c #9FAC5D",
"_#	c #CBF39B",
":#	c #A5B487",
"<#	c #4B513A",
"[#	c #656D49",
"}#	c #6F764D",
"|#	c #4D5131",
"1#	c #BCC472",
"2#	c #34351D",
"3#	c #666835",
"4#	c #95984A",
"5#	c #9DA250",
"6#	c #3F4626",
"7#	c #3D4E36",
"8#	c #68C2AC",
"9#	c #52E5B2",
"0#	c #B9C582",
"a#	c #545939",
"b#	c #AEB76D",
"c#	c #4C4F2D",
"d#	c #4F512B",
"e#	c #D2D76D",
"f#	c #666832",
"g#	c #E9F880",
"h#	c #CBF39A",
"i#	c #6F9B79",
"j#	c #36887B",
"k#	c #1C7B4D",
"l#	c #11AE32",
"m#	c #05FC10",
". + @ # $ % & * = - ; > , ' ",
") ! ~ { ] ^ / ( _ : < [ } | ",
"1 2 3 4 5 ; > 6 7 8 9 0 a b ",
"c / d e f < g h | i j k l m ",
"; n , o p q r a s t u v w x ",
"< g } | i y z l m A B C D E ",
"F G H I J K L M N O P Q R S ",
"T U V W X Y Z `  ...+.@.#.$.",
"%.&.*.=.-.;.>.R ,.'.).!.~.{.",
"].^./.(._.:.<.[.}.|.1.2.3.4.",
"5.6.7.8.9.0.a.b.c.d.e.f.g.h.",
"i.j.#.k.l.m.n.o.p.q.r.s.t.u.",
"v.w.x.y.z.A.B.C.D.E.F.G.H.I.",
"J.K.L.M.N.O.P.Q.R.S.T.U.V.W.",
"X.Y.Z.`.E.F. +.+++@+#+$+%+&+",
"*+P.=+-+;+>+,+'+)+!+~+{+]+^+",
"/+(+_+:+@+<+[+}+&+|+1+2+3+4+",
"5+6+7+)+!+~+8+]+9+0+a+b+c+d+",
"e+f+g+h+i+j+k+l+m+n+o+p+q+r+",
"s+t+u+v+w+x+y+z+A+B+C+D+E+F+",
"j+G+H+I+J+K+L+q+M+N+O+P+Q+R+",
"S+T+U+V+W+X+Y+Z+`+ @.@+@@@#@",
"$@%@&@*@=@-@;@>@,@'@)@!@~@{@",
"]@^@/@(@_@:@<@[@}@|@1@2@3@4@",
"5@6@7@8@9@0@a@b@c@d@e@f@g@h@",
"i@j@k@l@m@n@o@p@q@r@s@t@u@v@",
"w@x@y@z@A@B@C@D@E@F@G@H@I@J@",
"K@L@M@4@N@O@P@Q@R@S@T@U@V@W@",
"X@Y@Z@`@ #.#+#@###$#%#&#*#=#",
"-#;#>#,#'#)#!#~#{#]#^#/#(#_#",
":#<#[#}#|#1#2#3#4#5#6#7#8#9#",
"0#a#b#c#d#e#f#g#h#i#j#k#l#m#"};
